<svg version="1.1" id="Layer_1" xmlns="http://www.w3.org/2000/svg" xmlns:xlink="http://www.w3.org/1999/xlink" x="0px" y="0px"
      width="200px" height="200px" viewBox="0 0 200 200" enable-background="new 0 0 200 200" xml:space="preserve">
<path fill="#FFFFFF" d="M35.445,130.76c0.045-0.011,0.087-0.03,0.136-0.042c0,0.008,0.004,0.019,0.008,0.027
     c2.009-0.503,3.326-1.241,4.052-1.748c-1.574-2.429-2.353-3.961-2.353-3.961c-0.03-0.076-0.053-0.144-0.083-0.223
     c-0.757,0.397-1.809,0.84-3.182,1.165c0,0.011,0.004,0.019,0.004,0.026c-0.163,0.045-0.306,0.087-0.397,0.11
     C34.155,127.661,34.772,129.216,35.445,130.76 M163.116,125.3c-0.303-0.125-0.59-0.25-0.836-0.371
     c-0.015,0.034-0.026,0.068-0.045,0.106c0,0-0.866,1.544-2.58,3.988c0.734,0.503,2.039,1.226,4.011,1.722
     c0.008-0.027,0.011-0.045,0.023-0.068c0.098,0.026,0.182,0.053,0.284,0.083c0.677-1.544,1.294-3.099,1.82-4.646
     c-0.39-0.098-1.653-0.443-2.667-0.859L163.116,125.3z M109.461,132.489c0.008,0.023-0.011,0.057-0.042,0.091
     c0.008,0.295,0.023,0.583,0.042,0.851V132.489z M122.908,168.203c-3.36-3.916-4.51-7.435-4.858-8.827
     c-1.635,0.409-3.314,0.753-5.036,1.033c0.481,1.165,1.563,4.041,3.061,9.527l-0.541,0.144
     C118.034,169.618,120.49,168.99,122.908,168.203 M99.763,113.62c-11.54-28.638-16.126-44.011-18.286-51.93
     c0.004-0.136,0.011-0.276,0.015-0.405l-0.026,0.053c0.855-3.613,6.587-2.346,6.201-7.196h-8.562
     c-0.14-0.114-0.288-0.144-0.462-0.106c-0.496,0.049-1.056,0.079-1.657,0.106h-5.789c-8.585-0.182-20.114-0.84-24.143,0.904
     c7.915,6.394,5.081,20.322,5.081,37.609c0,18.188,1.809,33.977-5.081,40.659h27.439c0.087-3.333-2.422-6.459-3.046-11.184
     c-2.134-16.209,2.183-32.437,0.586-50.209c0,0,1.305-0.008,3.401,4.979c2.096,4.983,15.77,41.726,14.722,55.082l-0.026,1.063
     c-0.026,0.117,0.821,0.185,0.798,0.291l17.76,0.011c-0.015-0.087,0.568-0.556,0.73-0.768c-0.443-14.056,12.83-50.803,14.881-55.68
     c2.107-4.987,3.409-4.979,3.409-4.979c-1.6,17.772,2.713,34,0.583,50.209c-0.624,4.726-3.133,7.851-3.046,11.184h27.439
     c-6.89-6.682-5.078-22.471-5.078-40.659c0-17.287-2.834-31.215,5.078-37.609c-1.075-0.465-2.694-0.76-4.635-0.934
     c-0.004-0.045,0.004-0.083,0-0.132h-1.79c-3.458-0.185-7.647-0.106-11.722,0h-22.441c-0.382,4.854,5.346,3.587,6.201,7.204
     l-0.026-0.061c0.008,0.148,0.015,0.299,0.023,0.454c-2.153,7.881-6.723,23.269-18.324,52.044H99.763z M150.452,140.045
     c0.242,0.348,1.706,2.282,5.354,3.708c1.139-1.487,2.145-2.891,3.012-4.166c-2.702-0.938-4.332-2.206-5.157-2.985
     C152.677,137.722,151.606,138.872,150.452,140.045 M155.261,134.751c0.598,0.586,2.138,1.85,4.945,2.717
     c0.091-0.144,0.174-0.28,0.261-0.412l-0.095,0.412c0.95-1.419,1.775-2.921,2.539-4.453c-0.163-0.034-0.692-0.17-1.434-0.439
     l-0.011,0.042c-1.46-0.515-2.531-1.124-3.239-1.619C157.373,132.141,156.385,133.408,155.261,134.751 M188.387,69.836
     c-3.859-10.916-10.284-20.738-19.24-29.444c-8.956-8.736-19.1-15.297-30.42-19.739c-11.34-4.442-24.276-6.659-38.854-6.659h-0.219
     c-0.662,0-1.317,0.011-1.971,0.023c-2.16,1.582-3.867,3.394-4.37,5.585c-0.352,2.304,0.053,3.799,0.685,4.775
     c0.095,0,0.185-0.004,0.276-0.004c1.865,0,3.689,0.079,5.49,0.193c1.805-0.114,3.719,0.023,5.577,0.023
     c12.955,0,24.23,2.683,33.992,8.475c9.769,5.781,17.136,14.147,22.062,25.101c0.484,1.075,0.935,2.206,1.37,3.367
     c5.062,10.836,8.192,24.469,8.99,37.227c0.098,5.388-0.28,11.218-1.453,17.257c-0.011,0.057-0.023,0.11-0.034,0.167
     c-0.114,0.571-0.254,1.15-0.382,1.729c-0.197,0.87-0.401,1.737-0.613,2.584c-2.278,8.85-6.368,18.018-13.163,26.818
     c-2.013,2.448-4.366,5.04-7.075,7.62c-9.126,8.676-23.996,18.555-44.39,18.555c-1.476,0-3.383,0.185-5.017,0.136
     c-1.631,0.049-3.541-0.136-5.021-0.136c-20.39,0-35.263-9.879-44.382-18.555c-1.479-1.404-2.842-2.807-4.105-4.2
     c-16.432-18.99-19.349-40.175-18.26-56.334c1.249-12.202,4.529-24.821,9.527-34.738l0.045,0.163c0.231-0.56,0.462-1.116,0.704-1.661
     c3.401-7.556,7.972-13.867,13.685-18.96l0.295-0.148c0,0,11.987-10.291,19.111-10.284c5.827,0,15.407,4.397,23.375,3.034
     c1.816-0.306,4.987-1.12,4.87-2.562c-0.11-1.438-1.252-2.07-2.69-1.96c-1.438,0.117-3.693-0.795-3.693-0.795
     s-4.408-0.734-3.451-6.969c1.612-7.019,15.131-10.273,16.637-14.015c0.496-2.936-6.773-1.105-9.546-2.142
     c-4.798-1.797-6.031,2.293-15.558,0.882C68.332,4.931,45.96,24.901,38.468,32.31c-2.864,2.206-5.426,5.486-8.089,8.082
     c-8.952,8.706-15.373,18.528-19.244,29.444C7.25,80.744,5.331,92.643,5.331,105.512c0,11.404,1.986,22.952,5.986,34.639
     c3.988,11.695,9.803,21.635,17.473,29.811c7.658,8.188,17.015,16.871,28.105,21.029c11.071,4.147,23.012,7.056,35.797,7.056
     c2.395,0,4.76,0.341,7.087,0.216c2.327,0.125,4.665-0.216,7.06-0.216c12.785,0,24.722-2.91,35.797-7.056
     c11.09-4.158,20.443-12.842,28.097-21.029c7.677-8.176,13.481-18.116,17.477-29.811c3.999-11.688,5.986-23.235,5.986-34.639
     C194.195,92.643,192.277,80.744,188.387,69.836 M91.473,6.861c0.462-0.541,1.109-0.87,1.816-0.927
     c0.072-0.004,0.14-0.011,0.216-0.011c1.377,0,2.543,1.082,2.652,2.456c0.11,1.453-0.98,2.739-2.437,2.872
     c-0.076,0.004-0.148,0.008-0.219,0.008c-1.377,0-2.546-1.075-2.656-2.452C90.785,8.094,91.012,7.402,91.473,6.861 M78.753,159.103
     c-1.555-0.431-3.065-0.916-4.533-1.449c-0.458,1.188-1.862,4.181-5.327,7.514c1.631,0.795,3.288,1.517,4.964,2.153
     C77.141,163.776,78.352,160.522,78.753,159.103 M71.942,156.768c-1.468-0.605-2.883-1.26-4.257-1.956
     c-0.541,1.332-1.986,3.943-5.543,6.508c1.46,0.954,2.944,1.839,4.446,2.66C70.198,160.711,71.564,157.737,71.942,156.768
      M94.076,161.244c-1.85-0.019-3.659-0.121-5.414-0.295c-0.25,0.568-1.389,3.28-3.076,9.436c2.372,0.363,4.775,0.579,7.215,0.639
     C93.391,165.819,93.864,162.603,94.076,161.244 M83.179,169.935c1.408-5.15,2.44-7.999,2.963-9.293
     c-1.725-0.242-3.394-0.556-5.025-0.938c-0.435,1.574-1.653,4.866-4.771,8.498c2.418,0.787,4.249,1.309,6.754,1.774L83.179,169.935z
      M105.159,161.138c0.204,1.286,0.689,4.533,1.29,9.887c2.444-0.061,4.847-0.276,7.215-0.639c-1.911-6.969-3.114-9.535-3.125-9.561
     l0.201-0.091C108.923,160.949,107.065,161.089,105.159,161.138 M96.551,161.214c-0.151,0.935-0.67,4.31-1.309,9.932
     c1.373-0.019,2.754,0.307,4.143,0.201l0.004-0.015h0.008l0.087-0.011l0.087,0.011c0.015,0,0.026,0,0.042,0c0.011,0,0.023,0,0.042,0
     l0.079-0.011l0.091,0.011h0.011l0.004,0.015c1.385,0.106,2.773-0.219,4.139-0.201c-0.647-5.751-1.15-9.145-1.29-9.996
     c-0.965-0.015-1.933-0.042-2.925-0.102C98.677,161.131,97.61,161.184,96.551,161.214 M154.221,145.743
     c-3.174-1.377-4.835-3.103-5.524-3.973c-1.196,1.146-2.115,1.99-3.462,3.129l0.057,0.121c0.015,0.03,1.283,2.58,5.554,4.605
     C152.06,148.308,153.188,147.003,154.221,145.743 M31.635,83.975c-1.222,7.007-1.907,14.298-1.907,21.124v0.5
     c0.677-0.167,1.29-0.344,1.85-0.53c-0.008-0.042-0.019-0.083-0.03-0.129l0.098,0.008c-0.961-7.17-0.655-14.022-0.337-17.844
     C31.408,86.06,31.514,85.016,31.635,83.975 M130.361,165.168c-4.037-3.878-5.274-7.291-5.482-7.949
     c-1.453,0.556-2.947,1.06-4.476,1.514c0.269,1.124,1.366,4.673,4.994,8.589C127.07,166.685,128.727,165.963,130.361,165.168
      M37.598,135.077c0.125,0.227,0.261,0.443,0.39,0.67c0.31,0.522,0.658,1.093,1.059,1.722c2.622-0.806,4.132-1.96,4.817-2.588
     c-1.093-1.389-2.047-2.686-2.868-3.867c-0.897,0.628-2.357,1.43-4.468,1.998c-0.004,0-0.015,0.004-0.023,0.004
     c0,0,0.004,0,0.004,0.004c-0.015,0.004-0.026,0.011-0.038,0.015C36.633,133.352,37.015,134.07,37.598,135.077 M29.94,108.633
     c0.155,1.661,0.428,3.901,0.893,6.523l0.749-0.318c1.105-0.394,1.756-0.7,2.058-0.859c-0.537-1.994-1.041-4.071-1.513-6.243
     c-0.632,0.208-1.324,0.397-2.073,0.56h-0.042c-0.034,0.004-0.072,0-0.106,0c0,0.011,0.004,0.027,0.008,0.038
     c-0.015,0.004-0.026,0.008-0.042,0.011C29.895,108.429,29.917,108.531,29.94,108.633 M48.578,140.34
     c-1.146-1.214-2.202-2.41-3.174-3.56c-0.874,0.776-2.456,1.933-4.972,2.807c0.87,1.275,1.873,2.679,3.019,4.166
     C46.49,142.565,48.014,141.017,48.578,140.34 M143.377,156.693c-3.871-2.38-5.373-4.998-5.831-5.993
     c-1.544,1.01-2.149,1.476-3.833,2.391l-0.072,0.299c0.008,0.034,0.863,3.326,5.63,6.459
     C140.66,158.865,142.026,157.813,143.377,156.693 M132.666,163.98c1.502-0.821,2.982-1.706,4.446-2.66
     c-4.094-2.951-5.392-5.971-5.736-7.015c-1.718,0.889-2.289,1.188-4.139,1.934l-0.045,0.193
     C127.202,156.466,128.284,160.007,132.666,163.98 M147.289,153.227c0.613-0.586,1.215-1.177,1.793-1.763
     c-3.576-1.862-5.195-4.045-5.759-4.972c-1.389,1.116-2.134,1.669-3.67,2.724l0.034,0.291c0.011,0.027,1.105,2.955,5.645,5.505
     C145.991,154.43,146.642,153.836,147.289,153.227 M53.773,145.338c-1.233-1.075-2.395-2.164-3.485-3.246
     c-0.81,0.927-2.433,2.429-5.255,3.651c1.033,1.26,2.157,2.565,3.371,3.882C51.794,148.017,53.289,146.087,53.773,145.338
      M65.521,153.666c-1.408-0.787-2.766-1.616-4.064-2.467c-0.67,1.211-2.24,3.447-5.581,5.494c1.347,1.12,2.713,2.172,4.105,3.155
     C63.97,157.23,65.211,154.502,65.521,153.666 M53.917,155.013c3.685-2.07,5.104-4.385,5.513-5.199
     c-1.324-0.942-2.588-1.907-3.791-2.883c-0.745,1.067-2.369,2.925-5.467,4.533c0.579,0.586,1.18,1.177,1.797,1.763
     C52.612,153.836,53.27,154.43,53.917,155.013 M34.942,123.151c0.579-0.219,1.048-0.443,1.381-0.632
     c-0.711-1.933-1.385-3.992-2.017-6.148c-0.004,0.004-0.011,0.008-0.015,0.008l-0.008-0.03l-2.247,0.919
     c-0.102,0.034-0.185,0.068-0.288,0.098c0,0.011,0,0.015,0.004,0.019l-0.45,0.185c0.401,1.911,0.957,4.033,1.589,6.16
     C33.671,123.62,34.367,123.382,34.942,123.151 M166.287,112.409l-0.507,1.57l0.098,0.042c-0.011,0.027-0.019,0.053-0.026,0.079
     c0.405,0.201,1.086,0.496,2.183,0.87c0-0.015,0.004-0.03,0.004-0.045l0.549,0.231c0.496-2.785,0.776-5.172,0.927-6.86
     c-0.038,0-0.072,0.004-0.11,0c-0.068,0.008-0.136-0.004-0.204,0c-0.651-0.144-1.256-0.306-1.82-0.477
     C167.04,109.401,166.665,110.918,166.287,112.409 M167.94,85.284c-0.091-0.821-0.159-1.309-0.159-1.309L167.94,85.284z
      M167.982,104.936c-0.019,0.072-0.03,0.144-0.045,0.216c0.488,0.155,1.014,0.31,1.585,0.447v-0.5c0-1.983-0.072-4.011-0.189-6.054
     l0.038-0.696l-0.344-3.549c-0.17-1.949-0.378-3.905-0.639-5.85c0.004,0.068,0.008,0.144,0.011,0.216l-0.458-3.882
     c0.325,3.061,0.976,11.135-0.17,19.664L167.982,104.936z M164.887,117.441c-0.549,1.809-1.116,3.557-1.729,5.206
     c0.609,0.318,1.525,0.704,2.758,0.988c0.004-0.008,0.004-0.019,0.008-0.03c0.201,0.045,0.394,0.091,0.605,0.125
     c0.632-2.126,1.188-4.249,1.589-6.16l-2.985-1.222L164.887,117.441z" class="mainPath"/>

     <filter id="dropshadow" x0="-50%" y0="-50%" width="200%" height="200%">
          <feGaussianBlur in="SourceAlpha" stdDeviation="2"/>
          <feOffset dx="0" dy="0" result="blur" />
          <feComposite in="SourceGraphic" in2="blur" operator="over"/>
     </filter> 
     <filter id="drop-shadow">
          <feGaussianBlur in="SourceAlpha" stdDeviation="2"/>
          <feOffset dx="0" dy="0" result="offsetblur"/>
          <feFlood flood-color="rgba(0,0,0,0.5)"/>
          <feComposite in2="offsetblur" operator="in"/>
          <feMerge>
               <feMergeNode/>
               <feMergeNode in="SourceGraphic"/>
          </feMerge>
     </filter>
 </svg>